<svg version="1.1" viewBox="0 0 96 96" xmlns="http://www.w3.org/2000/svg" xmlns:xlink="http://www.w3.org/1999/xlink" id="Icons_MapWithPin" overflow="hidden"><style>
.MsftOfcThm_Accent1_lumMod_75_Fill {
 fill:#2F5597; 
}
</style>
<path d=" M 68 30.2 C 65.6 30.2 63.6 28.2 63.7 25.7 C 63.7 23.3 65.7 21.3 68.1 21.3 C 70.5 21.3 72.5 23.3 72.5 25.7 C 72.5 26.9 72 28 71.2 28.8 C 70.3 29.7 69.2 30.2 68 30.2 Z M 63.7 16.3 C 61.5 17.1 59.8 18.8 58.7 20.8 C 57.3 23.5 57.1 26.6 58.2 29.4 L 63 39.8 L 66.2 46.4 C 66.5 47.1 67.2 47.5 68 47.5 C 68.8 47.5 69.5 47.1 69.8 46.4 L 73 39.8 L 77.8 29.5 C 78.3 28.3 78.5 27 78.5 25.7 C 78.5 18.7 71.3 13.4 63.7 16.3 Z" stroke="none" stroke-width="1" stroke-dasharray="" stroke-dashoffset="1" fill="#2F5597" fill-opacity="1"/><path d=" M 46 72.8 L 30 64.8 L 30 32.2 L 46 40.2 L 46 72.8 Z M 26 64.8 L 14 70.8 L 14 38.2 L 26 32.2 L 26 64.8 Z M 81.4 31.2 L 81.4 31.2 L 78.9 36.6 L 82 38.2 L 82 70.8 L 70 64.8 L 70 51.5 L 66 51.5 L 66 64.8 L 50 72.8 L 50 40.2 L 57.1 36.6 L 54.6 31.2 L 48 34.5 L 28 24.5 L 8 34.5 L 8 80.5 L 28 70.5 L 48 80.5 L 68 70.5 L 88 80.5 L 88 34.5 L 81.4 31.2 Z" stroke="none" stroke-width="1" stroke-dasharray="" stroke-dashoffset="1" fill="#2F5597" fill-opacity="1"/></svg>