<svg version="1.1" viewBox="0 0 96 96" xmlns="http://www.w3.org/2000/svg" xmlns:xlink="http://www.w3.org/1999/xlink" id="Icons_Envelope" overflow="hidden"><style>
.MsftOfcThm_Accent1_lumMod_75_Fill {
 fill:#2F5597; 
}
</style>
<path d=" M 8 20 L 8 76 L 88 76 L 88 20 L 8 20 Z M 49.4 54.9 C 48.6 55.7 47.4 55.7 46.6 54.9 L 17 26 L 79.1 26 L 49.4 54.9 Z M 33.5 47.7 L 14 67.3 L 14 28.6 L 33.5 47.7 Z M 36.4 50.5 L 43.9 57.8 C 45.1 58.9 46.6 59.5 48.1 59.5 C 49.6 59.5 51.1 58.9 52.3 57.8 L 59.8 50.5 L 79.2 70 L 16.9 70 L 36.4 50.5 Z M 62.5 47.7 L 82 28.7 L 82 67.2 L 62.5 47.7 Z" stroke="none" stroke-width="1" stroke-dasharray="" stroke-dashoffset="1" fill="#2F5597" fill-opacity="1"/></svg>