<svg version="1.1" viewBox="0 0 96 96" xmlns="http://www.w3.org/2000/svg" xmlns:xlink="http://www.w3.org/1999/xlink" id="Icons_Cake" overflow="hidden"><style>
.MsftOfcThm_Accent1_lumMod_75_Fill {
 fill:#2F5597; 
}
</style>
<path d=" M 48 15.5 C 49.7 15.5 51 14.2 51 12.5 C 51 10.8 49.7 6.5 48 6.5 C 46.3 6.5 48.4 8.5 46 10.5 C 45.9 10.6 45.9 10.6 45.8 10.7 C 45.4 11.2 45 11.7 45 12.5 C 45 14.2 46.3 15.5 48 15.5 Z" stroke="none" stroke-width="1" stroke-dasharray="" stroke-dashoffset="1" fill="#2F5597" fill-opacity="1"/><path d=" M 38 20.5 C 39.7 20.5 41 19.2 41 17.5 C 41 15.8 39.7 11.5 38 11.5 C 36.3 11.5 38.4 13.5 36 15.5 C 35.9 15.6 35.9 15.6 35.8 15.7 C 35.4 16.2 35 16.7 35 17.5 C 35 19.2 36.3 20.5 38 20.5 Z" stroke="none" stroke-width="1" stroke-dasharray="" stroke-dashoffset="1" fill="#2F5597" fill-opacity="1"/><path d=" M 58 20.5 C 59.7 20.5 61 19.2 61 17.5 C 61 15.8 59.7 11.5 58 11.5 C 56.3 11.5 58.4 13.5 56 15.5 C 55.9 15.6 55.9 15.6 55.8 15.7 C 55.4 16.2 55 16.7 55 17.5 C 55 19.2 56.3 20.5 58 20.5 Z" stroke="none" stroke-width="1" stroke-dasharray="" stroke-dashoffset="1" fill="#2F5597" fill-opacity="1"/><path d=" M 30 57.8 C 33.1 54.7 39.2 54.7 42.3 57.8 C 43.1 58.6 45.3 58.6 46.1 57.8 C 49.2 54.7 55.3 54.7 58.4 57.8 C 59.2 58.6 61.4 58.6 62.2 57.8 C 65.3 54.7 71.4 54.7 74.5 57.8 C 74.8 58.1 75.3 58.3 75.9 58.4 L 75.9 42.5 C 75.9 39.8 69.8 37.5 60.9 36.3 L 60.9 25.5 C 60.9 24.9 59.6 24.5 57.9 24.5 C 56.2 24.5 54.9 24.9 54.9 25.5 L 54.9 35.7 C 53.6 35.6 52.3 35.6 50.9 35.5 L 50.9 20.5 C 50.9 19.9 49.6 19.5 47.9 19.5 C 46.2 19.5 44.9 19.9 44.9 20.5 L 44.9 35.5 C 43.5 35.5 42.2 35.6 40.9 35.7 L 40.9 25.5 C 40.9 24.9 39.6 24.5 37.9 24.5 C 36.2 24.5 34.9 24.9 34.9 25.5 L 34.9 36.3 C 26 37.5 19.9 39.8 19.9 42.5 L 19.9 55.5 C 22.2 55.5 24.5 56.3 26.1 57.8 C 27 58.6 29.2 58.6 30 57.8 Z" stroke="none" stroke-width="1" stroke-dasharray="" stroke-dashoffset="1" fill="#2F5597" fill-opacity="1"/><path d=" M 76 64.4 C 73.9 64.3 71.8 63.5 70.4 62.1 C 69.6 61.3 67.4 61.3 66.6 62.1 C 63.5 65.2 57.4 65.2 54.3 62.1 C 53.5 61.3 51.3 61.3 50.5 62.1 C 47.4 65.2 41.3 65.2 38.2 62.1 C 37.4 61.3 35.2 61.3 34.4 62.1 C 31.3 65.2 25.2 65.2 22.1 62.1 C 21.7 61.7 20.9 61.5 20.2 61.5 L 20.2 79.5 L 76.2 79.5 L 76.2 64.4 Z" stroke="none" stroke-width="1" stroke-dasharray="" stroke-dashoffset="1" fill="#2F5597" fill-opacity="1"/><path d=" M 76 83.5 L 20 83.5 C 18.3 83.5 17 84.8 17 86.5 C 17 88.2 18.3 89.5 20 89.5 L 76 89.5 C 77.7 89.5 79 88.2 79 86.5 C 79 84.8 77.7 83.5 76 83.5 Z" stroke="none" stroke-width="1" stroke-dasharray="" stroke-dashoffset="1" fill="#2F5597" fill-opacity="1"/></svg>